<svg width="27" height="27" viewBox="0 0 27 27" fill="none" xmlns="http://www.w3.org/2000/svg">
<path d="M13.4998 8.69995C11.9998 8.69995 10.7998 9.89995 10.7998 11.5C10.7998 13 11.9998 14.3 13.4998 14.3C14.9998 14.3 16.1998 13.1 16.1998 11.5C16.1998 9.99995 14.9998 8.69995 13.4998 8.69995Z" fill="#306E51"/>
<path d="M13.5 0C6.1 0 0 6.1 0 13.5C0 21 6.1 27 13.5 27C21 27 27 21 27 13.5C27 6.1 21 0 13.5 0ZM13.5 21.7C12.4 21.7 7.1 14.5 7.1 11.8C7.1 8.2 9.9 5.3 13.5 5.3C17 5.3 19.9 8.2 19.9 11.8C19.9 14.5 14.6 21.7 13.5 21.7Z" fill="#306E51"/>
</svg>
