<?xml version="1.0" encoding="utf-8"?>
<!-- Generator: Adobe Illustrator 16.0.0, SVG Export Plug-In . SVG Version: 6.00 Build 0)  -->
<!DOCTYPE svg PUBLIC "-//W3C//DTD SVG 1.1//EN" "http://www.w3.org/Graphics/SVG/1.1/DTD/svg11.dtd">
<svg version="1.1" id="Layer_2" xmlns="http://www.w3.org/2000/svg" xmlns:xlink="http://www.w3.org/1999/xlink" x="0px" y="0px"
	 width="200px" height="200px" viewBox="0 0 200 200" enable-background="new 0 0 200 200" xml:space="preserve">
<rect fill="none" width="200" height="200"/>
<title>home_24_svg</title>
<g>
	<path fill="#666666" d="M99.991,200C44.848,200,0,155.152,0,100.008C0,44.864,44.848,0,99.991,0C155.135,0,200,44.864,200,100.008
		C200,155.152,155.135,200,99.991,200z M99.991,17.455c-45.512,0-82.536,37.04-82.536,82.553c0,45.514,37.024,82.537,82.536,82.537
		c45.513,0,82.554-37.023,82.554-82.537C182.545,54.495,145.504,17.455,99.991,17.455z"/>
	<g id="Layer_2_4_">
		<path fill="#666666" d="M113.826,137.73c-2.147,0-4.313-0.783-6-2.387l-27.649-26.182c-1.739-1.654-2.728-3.938-2.728-6.342
			V70.996c0-4.823,3.903-8.728,8.728-8.728s8.728,3.904,8.728,8.728v28.075l24.921,23.591c3.494,3.324,3.648,8.848,0.341,12.342
			C118.445,136.811,116.145,137.73,113.826,137.73z"/>
	</g>
</g>
<rect x="103" y="-16" fill="none" width="200" height="200"/>
</svg>
