<svg width="12" height="9" viewBox="0 0 12 9" fill="none" xmlns="http://www.w3.org/2000/svg">
<path fill-rule="evenodd" clip-rule="evenodd" d="M11.04 5.51997C10.68 5.27997 9.96 4.79997 9 4.67997C9.24 4.43997 9.36 3.95997 9.6 3.47997C9.72 3.11997 9.72 2.87997 9.72 2.51997C9.72 2.27997 9.84 1.79997 9.72 1.55997C9.48 0.839969 9 0.59997 8.4 0.59997C8.04 0.59997 7.8 0.59997 7.56 0.83997C7.68 0.95997 7.68 1.19997 7.8 1.43997C7.92 1.79997 7.8 2.27997 7.8 2.63997C7.8 3.11997 7.8 3.47997 7.68 3.83997L7.56 4.31997C7.68 4.43997 7.68 4.55997 7.8 4.55997C7.68 4.55997 7.56 4.55997 7.44 4.67997C7.2 5.03997 7.08 5.27997 6.84 5.51997C8.16 5.75997 9 6.47997 9.6 6.71997C9.96 6.83997 10.08 7.07997 10.32 7.19997H11.28C11.76 7.19997 12 6.83997 12 6.59997V6.35997C12 6.35997 12 5.99997 11.04 5.51997ZM8.4 6.71997C7.8 6.47997 6.96 5.75997 5.64 5.51997C6 5.15997 6.24 4.55997 6.48 3.83997C6.6 3.47997 6.6 3.11997 6.6 2.63997C6.6 2.27997 6.72 1.67997 6.6 1.43997C6.36 0.23997 5.64 -3.05176e-05 4.8 -3.05176e-05C3.96 -3.05176e-05 3.24 0.23997 3 1.31997C2.88 1.67997 3 2.27997 3 2.51997C3 2.99997 3 3.35997 3.12 3.71997C3.36 4.55997 3.6 5.15997 3.84 5.51997C2.64 5.75997 1.68 6.47997 1.2 6.71997C0 7.31997 0 7.91997 0 7.91997V8.15997C0 8.51997 0.48 8.99997 0.84 8.99997H8.64C9.24 8.99997 9.6 8.51997 9.6 8.15997V7.91997C9.6 7.91997 9.6 7.31997 8.4 6.71997Z" fill="#666666"/>
</svg>
