<svg xmlns="http://www.w3.org/2000/svg" width="320" height="320">
    <path fill="#F1F1F5" fill-rule="evenodd" d="M-.002 319.997V-.002h320v319.999h-320zm238.301-160c0-21.599-8.8-41.199-22.902-55.4-14.199-14.199-33.799-22.899-55.399-22.899s-41.2 8.8-55.4 22.899c-14.2 14.201-23 33.801-22.899 55.4 0 21.601 8.799 41.201 22.899 55.401 14.2 14.2 33.8 22.999 55.4 22.999s41.2-8.799 55.399-22.899c14.201-14.2 22.902-33.8 22.902-55.4h-4.4v-.101h4.4zm-29.201 49.201c-12.5 12.6-29.899 20.4-49.1 20.4-19.2 0-36.599-7.8-49.2-20.4-12.6-12.6-20.4-29.899-20.4-49.201 0-19.299 7.8-36.599 20.4-49.199 12.601-12.601 30-20.4 49.2-20.4 19.201 0 36.6 7.799 49.2 20.4 12.6 12.6 20.4 29.9 20.4 49.199h-.099c0 19.201-7.801 36.601-20.401 49.201zm-13.7-16.601s-1.699 1.801-5.1 1.902c-.799 0-3.399-.601-4.499-1.2-2.001-1.301-5.101-3.901-5.101-8.301v-49.8c0-4.4 3.1-7.101 5.101-8.301.999-.599 3.7-1.199 4.499-1.199 3.401.1 5.1 1.9 5.1 1.9 2.4 2.4 2.8 6.099 2.8 8.099 0 1-.3 2.801-.6 3.301-2.2 4.7-10 6.899-10 6.899v8.1c17.899-3.699 21.6-14.599 21.6-14.599 2.399-6.9-.1-14.301-1.899-18.4-.901-2.001-2.301-4-2.6-4.399-8.501-10.501-18.801-8.601-18.801-8.601-11.3 2.1-15.999 10.899-15.999 10.899-1.6 2.8-1.801 6.801-1.801 6.801v28.499h-16.3v-28.598s-.2-4.001-1.799-6.801c0 0-4.701-8.801-16.001-10.899 0 0-10.2-1.901-18.8 8.599-.3.4-1.7 2.399-2.6 4.399-1.9 4.101-4.3 11.601-1.9 18.4 0 0 3.7 11.001 21.6 14.601v-8.1s-7.799-2.199-9.999-6.9c-.301-.6-.6-2.401-.6-3.3 0-2.101.399-5.701 2.8-8.101 0 0 1.699-1.799 5.099-1.898.801 0 3.4.599 4.5 1.199 2.001 1.299 5.101 3.899 5.101 8.3v49.801c0 4.398-3.1 7.099-5.101 8.299-.999.6-3.699 1.2-4.5 1.2-3.4-.1-5.099-1.9-5.099-1.9-2.401-2.4-2.8-6.101-2.8-8.1 0-1 .299-2.8.6-3.3 2.2-4.7 9.999-6.901 9.999-6.901v-8.099c-17.9 3.7-21.6 14.6-21.6 14.6-2.4 6.9.1 14.3 1.9 18.399.9 2 2.3 4.001 2.6 4.401 8.6 10.6 18.8 8.6 18.8 8.6 11.3-2.1 16.001-10.9 16.001-10.9 1.599-2.8 1.799-6.8 1.799-6.8v-27.801h16.4v27.902s.201 3.998 1.801 6.799c0 0 4.699 8.799 15.999 10.9 0 0 10.2 1.9 18.8-8.6.301-.4 1.7-2.4 2.6-4.399 1.9-4.102 4.301-11.601 1.9-18.402-.1 0-3.801-10.999-21.7-14.6v8.101s7.8 2.201 10 6.899c.3.601.6 2.4.6 3.302 0 2.099-.4 5.699-2.8 8.098z"/>
</svg>
